<svg xmlns="http://www.w3.org/2000/svg" xmlns:xlink="http://www.w3.org/1999/xlink" width="500" zoomAndPan="magnify" viewBox="0 0 375 374.999991" height="500" preserveAspectRatio="xMidYMid meet" version="1.0"><defs><clipPath id="c739c1712e"><path d="M 81 260 L 160 260 L 160 337.800781 L 81 337.800781 Z M 81 260 " clip-rule="nonzero"/></clipPath><clipPath id="bf01030fdf"><path d="M 215 260 L 293 260 L 293 337.800781 L 215 337.800781 Z M 215 260 " clip-rule="nonzero"/></clipPath><clipPath id="8ae60aa38c"><path d="M 33 37.050781 L 332 37.050781 L 332 127 L 33 127 Z M 33 37.050781 " clip-rule="nonzero"/></clipPath><clipPath id="7b8976a20a"><path d="M 10.757812 133 L 364 133 L 364 177 L 10.757812 177 Z M 10.757812 133 " clip-rule="nonzero"/></clipPath></defs><rect x="-37.5" width="450" fill="#ffffff" y="-37.499999" height="449.999989" fill-opacity="1"/><rect x="-37.5" width="450" fill="#ffffff" y="-37.499999" height="449.999989" fill-opacity="1"/><g clip-path="url(#c739c1712e)"><path fill="#000000" d="M 148.1875 271.460938 C 141.160156 264.429688 131.445312 260.082031 120.71875 260.082031 C 109.992188 260.082031 100.28125 264.429688 93.25 271.460938 C 86.222656 278.492188 81.871094 288.207031 81.871094 298.933594 C 81.871094 309.664062 86.222656 319.378906 93.25 326.410156 C 100.28125 333.441406 109.992188 337.789062 120.71875 337.789062 C 131.445312 337.789062 141.160156 333.441406 148.1875 326.410156 C 155.21875 319.378906 159.566406 309.664062 159.566406 298.933594 C 159.566406 288.207031 155.21875 278.492188 148.1875 271.460938 Z M 120.71875 279.492188 C 131.4375 279.492188 140.160156 288.226562 140.160156 298.933594 C 140.160156 304.300781 137.984375 309.164062 134.464844 312.683594 C 130.949219 316.199219 126.085938 318.375 120.71875 318.375 C 110 318.375 101.28125 309.652344 101.28125 298.933594 C 101.28125 293.566406 103.460938 288.707031 106.976562 285.1875 C 110.492188 281.671875 115.355469 279.492188 120.71875 279.492188 Z M 120.71875 279.492188 " fill-opacity="1" fill-rule="evenodd"/></g><g clip-path="url(#bf01030fdf)"><path fill="#000000" d="M 254.050781 260.082031 C 243.324219 260.082031 233.609375 264.429688 226.582031 271.460938 C 219.550781 278.492188 215.203125 288.207031 215.203125 298.933594 C 215.203125 309.664062 219.550781 319.378906 226.582031 326.40625 C 233.609375 333.441406 243.324219 337.789062 254.050781 337.789062 C 264.777344 337.789062 274.488281 333.441406 281.519531 326.40625 C 288.546875 319.378906 292.898438 309.664062 292.898438 298.933594 C 292.898438 288.207031 288.546875 278.492188 281.519531 271.460938 C 274.488281 264.429688 264.777344 260.082031 254.050781 260.082031 Z M 254.050781 279.492188 C 259.417969 279.492188 264.277344 281.667969 267.792969 285.1875 C 271.3125 288.707031 273.488281 293.566406 273.488281 298.933594 C 273.488281 309.660156 264.765625 318.375 254.050781 318.375 C 248.683594 318.375 243.824219 316.199219 240.304688 312.679688 C 236.789062 309.164062 234.609375 304.300781 234.609375 298.933594 C 234.609375 288.21875 243.34375 279.492188 254.050781 279.492188 Z M 254.050781 279.492188 " fill-opacity="1" fill-rule="evenodd"/></g><g clip-path="url(#8ae60aa38c)"><path fill="#000000" d="M 117.976562 37.523438 Z M 33.488281 126.242188 L 331.398438 126.242188 L 324.382812 109.574219 C 323.722656 107.492188 321.851562 105.917969 319.539062 105.746094 L 294.082031 103.84375 L 272.066406 78.050781 L 266.296875 58.167969 C 265.878906 56.058594 264.246094 54.300781 262.011719 53.835938 L 199.285156 40.75 C 197.953125 40.375 196.480469 40.492188 195.164062 41.203125 L 195.171875 41.214844 L 154.628906 63.097656 L 123.101562 38.757812 C 121.757812 37.546875 119.851562 37.019531 117.976562 37.53125 L 72.664062 49.671875 C 70.160156 50.195312 68.273438 52.414062 68.273438 55.074219 L 68.273438 96.3125 L 36.601562 114.601562 C 34.757812 115.492188 33.488281 117.382812 33.488281 119.566406 Z M 171.582031 105.953125 C 170.308594 108.714844 167.039062 109.917969 164.277344 108.644531 L 134.515625 94.835938 L 101.152344 112.007812 C 98.453125 113.398438 95.132812 112.335938 93.742188 109.636719 C 92.351562 106.933594 93.410156 103.617188 96.113281 102.222656 L 131.53125 83.992188 C 133.050781 83.074219 134.984375 82.902344 136.714844 83.707031 L 136.710938 83.714844 L 168.890625 98.648438 C 171.648438 99.921875 172.855469 103.195312 171.582031 105.953125 Z M 237.65625 99.910156 C 235.300781 101.824219 231.835938 101.46875 229.921875 99.109375 L 220.746094 87.773438 L 200.285156 96.542969 C 197.492188 97.734375 194.257812 96.433594 193.070312 93.636719 C 191.878906 90.839844 193.183594 87.605469 195.976562 86.417969 L 219.863281 76.179688 C 222.140625 74.996094 225.011719 75.535156 226.6875 77.609375 L 226.671875 77.617188 L 238.453125 92.171875 C 240.367188 94.527344 240.011719 97.992188 237.65625 99.910156 Z M 237.65625 99.910156 " fill-opacity="1" fill-rule="evenodd"/></g><g clip-path="url(#7b8976a20a)"><path fill="#000000" d="M 23.707031 133.136719 L 351.0625 133.136719 C 358.105469 133.136719 363.863281 138.894531 363.863281 145.941406 L 363.863281 164.164062 C 363.863281 171.203125 358.101562 176.96875 351.0625 176.96875 L 23.707031 176.96875 C 20.183594 176.96875 16.980469 175.527344 14.664062 173.210938 C 12.34375 170.894531 10.90625 167.6875 10.90625 164.164062 L 10.90625 145.941406 C 10.90625 142.414062 12.34375 139.210938 14.664062 136.894531 C 16.980469 134.578125 20.183594 133.136719 23.707031 133.136719 Z M 23.707031 133.136719 " fill-opacity="1" fill-rule="nonzero"/></g><path fill="#000000" d="M 340.410156 183.863281 L 317.324219 282.984375 C 315.101562 279.636719 311.296875 277.429688 306.980469 277.429688 C 305.300781 277.429688 303.722656 277.789062 302.214844 278.414062 L 294.941406 278.414062 C 292.765625 274.085938 289.894531 270.089844 286.390625 266.585938 C 277.792969 257.984375 266.214844 253.1875 254.050781 253.1875 C 241.882812 253.1875 230.308594 257.984375 221.707031 266.585938 C 218.207031 270.089844 215.332031 274.085938 213.160156 278.414062 L 161.609375 278.414062 C 159.4375 274.085938 156.566406 270.089844 153.0625 266.585938 C 144.460938 257.984375 132.886719 253.1875 120.71875 253.1875 C 108.554688 253.1875 96.976562 257.984375 88.378906 266.585938 C 84.875 270.089844 82.003906 274.085938 79.832031 278.414062 L 72.640625 278.414062 C 67.191406 276.097656 60.757812 277.980469 57.449219 282.984375 L 34.351562 183.863281 L 340.414062 183.863281 Z M 340.410156 183.863281 " fill-opacity="1" fill-rule="nonzero"/><path fill="#000000" d="M 298.375 313.546875 L 297.402344 313.546875 C 298.972656 308.890625 299.789062 303.960938 299.789062 298.933594 C 299.789062 294.261719 299.082031 289.671875 297.722656 285.308594 L 303.242188 285.308594 C 303.484375 285.308594 303.667969 285.289062 303.796875 285.253906 C 303.878906 285.234375 303.960938 285.203125 304.042969 285.167969 C 304.894531 284.632812 305.898438 284.320312 306.980469 284.320312 C 310.023438 284.320312 312.496094 286.792969 312.496094 289.839844 L 312.496094 299.429688 C 312.496094 303.316406 310.90625 306.847656 308.351562 309.40625 C 305.796875 311.960938 302.265625 313.546875 298.375 313.546875 Z M 298.375 313.546875 " fill-opacity="1" fill-rule="nonzero"/><path fill="#000000" d="M 210.695312 313.546875 L 164.074219 313.546875 C 165.640625 308.890625 166.460938 303.960938 166.460938 298.933594 C 166.460938 294.261719 165.75 289.671875 164.394531 285.308594 L 210.375 285.308594 C 209.015625 289.671875 208.308594 294.261719 208.308594 298.933594 C 208.308594 303.960938 209.128906 308.890625 210.695312 313.546875 Z M 210.695312 313.546875 " fill-opacity="1" fill-rule="nonzero"/><path fill="#000000" d="M 62.277344 299.429688 L 62.277344 289.9375 C 62.257812 288.960938 62.5 287.96875 63.023438 287.0625 C 64.558594 284.429688 67.933594 283.539062 70.566406 285.070312 L 70.558594 285.082031 C 70.695312 285.160156 70.832031 285.21875 70.972656 285.257812 C 71.101562 285.289062 71.285156 285.308594 71.527344 285.308594 L 77.046875 285.308594 C 75.6875 289.671875 74.976562 294.261719 74.976562 298.933594 C 74.976562 303.960938 75.796875 308.890625 77.367188 313.546875 L 76.394531 313.546875 C 72.503906 313.546875 68.972656 311.960938 66.417969 309.40625 C 63.863281 306.847656 62.277344 303.316406 62.277344 299.429688 Z M 62.277344 299.429688 " fill-opacity="1" fill-rule="nonzero"/></svg>