<svg xmlns="http://www.w3.org/2000/svg" xmlns:xlink="http://www.w3.org/1999/xlink" width="500" zoomAndPan="magnify" viewBox="0 0 375 374.999991" height="500" preserveAspectRatio="xMidYMid meet" version="1.0"><defs><g/></defs><rect x="-37.5" width="450" fill="#ffffff" y="-37.499999" height="449.999989" fill-opacity="1"/><rect x="-37.5" width="450" fill="#0cc0df" y="-37.499999" height="449.999989" fill-opacity="1"/><g fill="#ffffff" fill-opacity="1"><g transform="translate(1.791218, 255.374983)"><g><path d="M 8.28125 -162.25 C 8.28125 -167.519531 7.816406 -171.84375 6.890625 -175.21875 C 5.972656 -178.59375 4.289062 -181.503906 1.84375 -183.953125 L 60.34375 -183.953125 C 64.75 -183.953125 68.269531 -182.570312 70.90625 -179.8125 C 73.550781 -177.050781 75.914062 -172.726562 78 -166.84375 C 80.082031 -160.957031 82.441406 -153.289062 85.078125 -143.84375 C 87.710938 -134.40625 91.238281 -123.0625 95.65625 -109.8125 C 100.070312 -123.0625 103.597656 -134.40625 106.234375 -143.84375 C 108.867188 -153.289062 111.226562 -160.957031 113.3125 -166.84375 C 115.394531 -172.726562 117.753906 -177.050781 120.390625 -179.8125 C 123.035156 -182.570312 126.5625 -183.953125 130.96875 -183.953125 L 189.109375 -183.953125 C 186.648438 -181.503906 184.960938 -178.59375 184.046875 -175.21875 C 183.128906 -171.84375 182.671875 -167.519531 182.671875 -162.25 L 182.671875 -21.703125 C 182.671875 -16.429688 183.128906 -12.109375 184.046875 -8.734375 C 184.960938 -5.359375 186.648438 -2.445312 189.109375 0 L 127.484375 0 C 129.929688 -2.445312 131.613281 -5.359375 132.53125 -8.734375 C 133.457031 -12.109375 133.921875 -16.429688 133.921875 -21.703125 L 133.921875 -128.765625 C 133.921875 -131.585938 133.765625 -134.5625 133.453125 -137.6875 C 133.148438 -140.8125 132.535156 -143.445312 131.609375 -145.59375 C 130.691406 -147.738281 129.191406 -148.8125 127.109375 -148.8125 C 125.390625 -148.8125 123.488281 -146.785156 121.40625 -142.734375 C 119.320312 -138.691406 117.144531 -133.296875 114.875 -126.546875 C 112.601562 -119.804688 110.332031 -112.296875 108.0625 -104.015625 C 105.800781 -95.742188 103.628906 -87.378906 101.546875 -78.921875 C 99.703125 -71.191406 97.953125 -63.738281 96.296875 -56.5625 C 94.640625 -49.382812 93.046875 -42.914062 91.515625 -37.15625 C 89.984375 -31.394531 88.421875 -26.859375 86.828125 -23.546875 C 85.234375 -20.234375 83.515625 -18.578125 81.671875 -18.578125 C 80.078125 -18.578125 78.269531 -20.382812 76.25 -24 C 74.226562 -27.625 72.144531 -32.410156 70 -38.359375 C 67.851562 -44.304688 65.613281 -50.863281 63.28125 -58.03125 C 60.945312 -65.207031 58.617188 -72.351562 56.296875 -79.46875 C 55.554688 -81.675781 54.507812 -84.863281 53.15625 -89.03125 C 51.8125 -93.195312 50.25 -97.882812 48.46875 -103.09375 C 46.6875 -108.3125 44.785156 -113.585938 42.765625 -118.921875 C 40.742188 -124.253906 38.71875 -129.191406 36.6875 -133.734375 C 34.664062 -138.273438 32.703125 -141.921875 30.796875 -144.671875 C 28.898438 -147.429688 27.21875 -148.8125 25.75 -148.8125 C 23.789062 -148.8125 22.316406 -147.738281 21.328125 -145.59375 C 20.347656 -143.445312 19.707031 -140.8125 19.40625 -137.6875 C 19.101562 -134.5625 18.953125 -131.585938 18.953125 -128.765625 C 18.953125 -116.992188 20.359375 -106.382812 23.171875 -96.9375 C 25.992188 -87.5 29.488281 -78.945312 33.65625 -71.28125 C 37.832031 -63.613281 41.972656 -56.625 46.078125 -50.3125 C 50.191406 -44 53.65625 -38.050781 56.46875 -32.46875 C 59.289062 -26.882812 60.703125 -21.457031 60.703125 -16.1875 C 60.703125 -10.539062 58.644531 -6.429688 54.53125 -3.859375 C 50.425781 -1.285156 45.675781 0 40.28125 0 L 1.84375 0 C 4.289062 -2.445312 5.972656 -5.359375 6.890625 -8.734375 C 7.816406 -12.109375 8.28125 -16.429688 8.28125 -21.703125 Z M 8.28125 -162.25 "/></g></g></g><g fill="#ffffff" fill-opacity="1"><g transform="translate(182.244589, 255.374983)"><g><path d="M 8.28125 -162.25 C 8.28125 -167.519531 7.816406 -171.84375 6.890625 -175.21875 C 5.972656 -178.59375 4.289062 -181.503906 1.84375 -183.953125 L 60.34375 -183.953125 C 64.75 -183.953125 68.269531 -182.570312 70.90625 -179.8125 C 73.550781 -177.050781 75.914062 -172.726562 78 -166.84375 C 80.082031 -160.957031 82.441406 -153.289062 85.078125 -143.84375 C 87.710938 -134.40625 91.238281 -123.0625 95.65625 -109.8125 C 100.070312 -123.0625 103.597656 -134.40625 106.234375 -143.84375 C 108.867188 -153.289062 111.226562 -160.957031 113.3125 -166.84375 C 115.394531 -172.726562 117.753906 -177.050781 120.390625 -179.8125 C 123.035156 -182.570312 126.5625 -183.953125 130.96875 -183.953125 L 189.109375 -183.953125 C 186.648438 -181.503906 184.960938 -178.59375 184.046875 -175.21875 C 183.128906 -171.84375 182.671875 -167.519531 182.671875 -162.25 L 182.671875 -21.703125 C 182.671875 -16.429688 183.128906 -12.109375 184.046875 -8.734375 C 184.960938 -5.359375 186.648438 -2.445312 189.109375 0 L 127.484375 0 C 129.929688 -2.445312 131.613281 -5.359375 132.53125 -8.734375 C 133.457031 -12.109375 133.921875 -16.429688 133.921875 -21.703125 L 133.921875 -128.765625 C 133.921875 -131.585938 133.765625 -134.5625 133.453125 -137.6875 C 133.148438 -140.8125 132.535156 -143.445312 131.609375 -145.59375 C 130.691406 -147.738281 129.191406 -148.8125 127.109375 -148.8125 C 125.390625 -148.8125 123.488281 -146.785156 121.40625 -142.734375 C 119.320312 -138.691406 117.144531 -133.296875 114.875 -126.546875 C 112.601562 -119.804688 110.332031 -112.296875 108.0625 -104.015625 C 105.800781 -95.742188 103.628906 -87.378906 101.546875 -78.921875 C 99.703125 -71.191406 97.953125 -63.738281 96.296875 -56.5625 C 94.640625 -49.382812 93.046875 -42.914062 91.515625 -37.15625 C 89.984375 -31.394531 88.421875 -26.859375 86.828125 -23.546875 C 85.234375 -20.234375 83.515625 -18.578125 81.671875 -18.578125 C 80.078125 -18.578125 78.269531 -20.382812 76.25 -24 C 74.226562 -27.625 72.144531 -32.410156 70 -38.359375 C 67.851562 -44.304688 65.613281 -50.863281 63.28125 -58.03125 C 60.945312 -65.207031 58.617188 -72.351562 56.296875 -79.46875 C 55.554688 -81.675781 54.507812 -84.863281 53.15625 -89.03125 C 51.8125 -93.195312 50.25 -97.882812 48.46875 -103.09375 C 46.6875 -108.3125 44.785156 -113.585938 42.765625 -118.921875 C 40.742188 -124.253906 38.71875 -129.191406 36.6875 -133.734375 C 34.664062 -138.273438 32.703125 -141.921875 30.796875 -144.671875 C 28.898438 -147.429688 27.21875 -148.8125 25.75 -148.8125 C 23.789062 -148.8125 22.316406 -147.738281 21.328125 -145.59375 C 20.347656 -143.445312 19.707031 -140.8125 19.40625 -137.6875 C 19.101562 -134.5625 18.953125 -131.585938 18.953125 -128.765625 C 18.953125 -116.992188 20.359375 -106.382812 23.171875 -96.9375 C 25.992188 -87.5 29.488281 -78.945312 33.65625 -71.28125 C 37.832031 -63.613281 41.972656 -56.625 46.078125 -50.3125 C 50.191406 -44 53.65625 -38.050781 56.46875 -32.46875 C 59.289062 -26.882812 60.703125 -21.457031 60.703125 -16.1875 C 60.703125 -10.539062 58.644531 -6.429688 54.53125 -3.859375 C 50.425781 -1.285156 45.675781 0 40.28125 0 L 1.84375 0 C 4.289062 -2.445312 5.972656 -5.359375 6.890625 -8.734375 C 7.816406 -12.109375 8.28125 -16.429688 8.28125 -21.703125 Z M 8.28125 -162.25 "/></g></g></g></svg>