<svg xmlns="http://www.w3.org/2000/svg" xmlns:xlink="http://www.w3.org/1999/xlink" width="500" zoomAndPan="magnify" viewBox="0 0 375 374.999991" height="500" preserveAspectRatio="xMidYMid meet" version="1.0"><rect x="-37.5" width="450" fill="#ffffff" y="-37.499999" height="449.999989" fill-opacity="1"/><rect x="-37.5" width="450" fill="#0cc0df" y="-37.499999" height="449.999989" fill-opacity="1"/><path fill="#ffffff" d="M 313.316406 170.355469 C 324.648438 200.40625 324.128906 228.289062 320.761719 248.6875 C 314.917969 228.050781 306.785156 208.128906 296.519531 189.335938 C 287.378906 172.605469 276.503906 156.742188 264.199219 142.132812 L 284.585938 123.261719 C 297.105469 137.21875 306.785156 153.039062 313.316406 170.355469 Z M 313.316406 170.355469 " fill-opacity="1" fill-rule="nonzero"/><path fill="#ffffff" d="M 185.769531 78.589844 C 166.988281 68.332031 147.0625 60.195312 126.417969 54.347656 C 146.820312 50.980469 174.703125 50.460938 204.753906 61.789062 C 222.066406 68.320312 237.886719 78 251.847656 90.523438 L 232.976562 110.910156 C 218.363281 98.605469 202.5 87.726562 185.769531 78.589844 Z M 185.769531 78.589844 " fill-opacity="1" fill-rule="nonzero"/><path fill="#ffffff" d="M 53.6875 309.414062 L 226.375 136.726562 L 238.378906 148.734375 L 65.691406 321.417969 C 62.488281 324.625 56.898438 324.625 53.6875 321.417969 C 50.378906 318.109375 50.378906 312.722656 53.6875 309.414062 Z M 53.6875 309.414062 " fill-opacity="1" fill-rule="nonzero"/><path fill="#ffffff" d="M 263.035156 84.992188 C 270.890625 87.660156 276.421875 92.066406 279.730469 95.375 C 285.492188 101.136719 288.53125 107.425781 290.117188 112.074219 L 283.242188 118.4375 C 283.242188 118.4375 283.238281 118.4375 283.234375 118.441406 C 283.234375 118.445312 283.234375 118.445312 283.234375 118.445312 L 247.480469 151.535156 L 243.105469 147.15625 C 243.105469 147.152344 243.105469 147.15625 243.101562 147.15625 L 223.574219 127.625 Z M 263.035156 84.992188 " fill-opacity="1" fill-rule="nonzero"/></svg>